<?plantuml 1.2026.2?><svg xmlns="http://www.w3.org/2000/svg" xmlns:xlink="http://www.w3.org/1999/xlink" contentStyleType="text/css" data-diagram-type="DESCRIPTION" height="677px" preserveAspectRatio="none" style="width:3230px;height:677px;background:#FFFFFF;" version="1.1" viewBox="0 0 3230 677" width="3230px" zoomAndPan="magnify"><title>Smart Cafe - React Component Hierarchy</title><defs/><g><g class="title" data-source-line="1"><text fill="#000000" font-family="sans-serif" font-size="14" font-weight="bold" lengthAdjust="spacing" textLength="297.7051" x="1459.4329" y="23.5352">Smart Cafe - React Component Hierarchy</text></g><!--cluster App--><g class="cluster" data-qualified-name="App" data-source-line="3" id="ent0002"><path d="M8.5,43.4883 L140.6816,43.4883 A3.75,3.75 0 0 1 143.1816,45.9883 L150.1816,82.4648 L2553.5,82.4648 A2.5,2.5 0 0 1 2556,84.9648 L2556,667.5883 A2.5,2.5 0 0 1 2553.5,670.0883 L8.5,670.0883 A2.5,2.5 0 0 1 6,667.5883 L6,45.9883 A2.5,2.5 0 0 1 8.5,43.4883" fill="none" style="stroke:#000000;stroke-width:1.5;"/><line style="stroke:#000000;stroke-width:1.5;" x1="6" x2="150.1816" y1="82.4648" y2="82.4648"/><text fill="#000000" font-family="sans-serif" font-size="14" font-weight="bold" lengthAdjust="spacing" textLength="54.1816" x="48.5" y="59.0234">App.tsx</text><text fill="#000000" font-family="sans-serif" font-size="14" font-weight="bold" lengthAdjust="spacing" textLength="131.1816" x="10" y="75.5117">(Root Component)</text></g><!--cluster CartProvider--><g class="cluster" data-qualified-name="App.CartProvider" data-source-line="4" id="ent0003"><path d="M32.5,102.4883 L190.8086,102.4883 A3.75,3.75 0 0 1 193.3086,104.9883 L200.3086,141.4648 L2529.5,141.4648 A2.5,2.5 0 0 1 2532,143.9648 L2532,643.5883 A2.5,2.5 0 0 1 2529.5,646.0883 L32.5,646.0883 A2.5,2.5 0 0 1 30,643.5883 L30,104.9883 A2.5,2.5 0 0 1 32.5,102.4883" fill="none" style="stroke:#000000;stroke-width:1.5;"/><line style="stroke:#000000;stroke-width:1.5;" x1="30" x2="200.3086" y1="141.4648" y2="141.4648"/><text fill="#000000" font-family="sans-serif" font-size="14" font-weight="bold" lengthAdjust="spacing" textLength="90.8359" x="67.2363" y="118.0234">CartProvider</text><text fill="#000000" font-family="sans-serif" font-size="14" font-weight="bold" lengthAdjust="spacing" textLength="157.3086" x="34" y="134.5117">(Global State Context)</text></g><!--cluster Router--><g class="cluster" data-qualified-name="App.CartProvider.Router" data-source-line="5" id="ent0004"><path d="M56.5,161.4883 L181.9004,161.4883 A3.75,3.75 0 0 1 184.4004,163.9883 L191.4004,200.4648 L2505.5,200.4648 A2.5,2.5 0 0 1 2508,202.9648 L2508,619.5883 A2.5,2.5 0 0 1 2505.5,622.0883 L56.5,622.0883 A2.5,2.5 0 0 1 54,619.5883 L54,163.9883 A2.5,2.5 0 0 1 56.5,161.4883" fill="none" style="stroke:#000000;stroke-width:1.5;"/><line style="stroke:#000000;stroke-width:1.5;" x1="54" x2="191.4004" y1="200.4648" y2="200.4648"/><text fill="#000000" font-family="sans-serif" font-size="14" font-weight="bold" lengthAdjust="spacing" textLength="106.7227" x="66.8389" y="177.0234">BrowserRouter</text><text fill="#000000" font-family="sans-serif" font-size="14" font-weight="bold" lengthAdjust="spacing" textLength="124.4004" x="58" y="193.5117">(React Router v7)</text></g><!--cluster Public Routes--><g class="cluster" data-qualified-name="App.CartProvider.Router.Public Routes" data-source-line="7" id="ent0005"><path d="M80.5,349.4883 L179.3154,349.4883 A3.75,3.75 0 0 1 181.8154,351.9883 L188.8154,371.9766 L229.5,371.9766 A2.5,2.5 0 0 1 232,374.4766 L232,444.4783 A2.5,2.5 0 0 1 229.5,446.9783 L80.5,446.9783 A2.5,2.5 0 0 1 78,444.4783 L78,351.9883 A2.5,2.5 0 0 1 80.5,349.4883" fill="none" style="stroke:#000000;stroke-width:1.5;"/><line style="stroke:#000000;stroke-width:1.5;" x1="78" x2="188.8154" y1="371.9766" y2="371.9766"/><text fill="#000000" font-family="sans-serif" font-size="14" font-weight="bold" lengthAdjust="spacing" textLength="97.8154" x="82" y="365.0234">Public Routes</text></g><!--cluster Protected Routes (Customer)--><g class="cluster" data-qualified-name="App.CartProvider.Router.Protected Routes .Customer." data-source-line="11" id="ent0007"><path d="M258.5,220.4883 L466.9092,220.4883 A3.75,3.75 0 0 1 469.4092,222.9883 L476.4092,242.9766 L1812.5,242.9766 A2.5,2.5 0 0 1 1815,245.4766 L1815,595.5883 A2.5,2.5 0 0 1 1812.5,598.0883 L258.5,598.0883 A2.5,2.5 0 0 1 256,595.5883 L256,222.9883 A2.5,2.5 0 0 1 258.5,220.4883" fill="none" style="stroke:#000000;stroke-width:1.5;"/><line style="stroke:#000000;stroke-width:1.5;" x1="256" x2="476.4092" y1="242.9766" y2="242.9766"/><text fill="#000000" font-family="sans-serif" font-size="14" font-weight="bold" lengthAdjust="spacing" textLength="207.4092" x="260" y="236.0234">Protected Routes (Customer)</text></g><!--cluster MenuScreen--><g class="cluster" data-qualified-name="App.CartProvider.Router.Protected Routes .Customer..MenuScreen" data-source-line="12" id="ent0008"><rect fill="none" height="310.6" rx="2.5" ry="2.5" style="stroke:#181818;stroke-width:1;" width="1002" x="280" y="263.4883"/><rect fill="none" height="10" style="stroke:#181818;stroke-width:1;" width="15" x="1262" y="268.4883"/><rect fill="none" height="2" style="stroke:#181818;stroke-width:1;" width="4" x="1260" y="270.4883"/><rect fill="none" height="2" style="stroke:#181818;stroke-width:1;" width="4" x="1260" y="274.4883"/><text fill="#000000" font-family="sans-serif" font-size="14" font-weight="bold" lengthAdjust="spacing" textLength="86.7139" x="737.6431" y="290.0234">MenuScreen</text></g><!--cluster ConciergeSection--><g class="cluster" data-qualified-name="App.CartProvider.Router.Protected Routes .Customer..MenuScreen.ConciergeSection" data-source-line="14" id="ent0010"><rect fill="none" height="164.49" rx="2.5" ry="2.5" style="stroke:#181818;stroke-width:1;" width="456" x="304" y="306.4883"/><rect fill="none" height="10" style="stroke:#181818;stroke-width:1;" width="15" x="740" y="311.4883"/><rect fill="none" height="2" style="stroke:#181818;stroke-width:1;" width="4" x="738" y="313.4883"/><rect fill="none" height="2" style="stroke:#181818;stroke-width:1;" width="4" x="738" y="317.4883"/><text fill="#000000" font-family="sans-serif" font-size="14" font-weight="bold" lengthAdjust="spacing" textLength="124.1338" x="469.9331" y="333.0234">ConciergeSection</text></g><!--cluster ChatHistory--><g class="cluster" data-qualified-name="App.CartProvider.Router.Protected Routes .Customer..MenuScreen.ConciergeSection.ChatHistory" data-source-line="15" id="ent0011"><rect fill="none" height="97.49" rx="2.5" ry="2.5" style="stroke:#181818;stroke-width:1;" width="162" x="328" y="349.4883"/><rect fill="none" height="10" style="stroke:#181818;stroke-width:1;" width="15" x="470" y="354.4883"/><rect fill="none" height="2" style="stroke:#181818;stroke-width:1;" width="4" x="468" y="356.4883"/><rect fill="none" height="2" style="stroke:#181818;stroke-width:1;" width="4" x="468" y="360.4883"/><text fill="#000000" font-family="sans-serif" font-size="14" font-weight="bold" lengthAdjust="spacing" textLength="85.6064" x="366.1968" y="376.0234">ChatHistory</text></g><!--cluster RecommendationCards--><g class="cluster" data-qualified-name="App.CartProvider.Router.Protected Routes .Customer..MenuScreen.ConciergeSection.RecommendationCards" data-source-line="18" id="ent0013"><rect fill="none" height="97.49" rx="2.5" ry="2.5" style="stroke:#181818;stroke-width:1;" width="222" x="514" y="349.4883"/><rect fill="none" height="10" style="stroke:#181818;stroke-width:1;" width="15" x="716" y="354.4883"/><rect fill="none" height="2" style="stroke:#181818;stroke-width:1;" width="4" x="714" y="356.4883"/><rect fill="none" height="2" style="stroke:#181818;stroke-width:1;" width="4" x="714" y="360.4883"/><text fill="#000000" font-family="sans-serif" font-size="14" font-weight="bold" lengthAdjust="spacing" textLength="166.4346" x="541.7827" y="376.0234">RecommendationCards</text></g><!--cluster MenuItemGrid--><g class="cluster" data-qualified-name="App.CartProvider.Router.Protected Routes .Customer..MenuScreen.MenuItemGrid" data-source-line="23" id="ent0016"><rect fill="none" height="97.49" rx="2.5" ry="2.5" style="stroke:#181818;stroke-width:1;" width="172" x="784" y="349.4883"/><rect fill="none" height="10" style="stroke:#181818;stroke-width:1;" width="15" x="936" y="354.4883"/><rect fill="none" height="2" style="stroke:#181818;stroke-width:1;" width="4" x="934" y="356.4883"/><rect fill="none" height="2" style="stroke:#181818;stroke-width:1;" width="4" x="934" y="360.4883"/><text fill="#000000" font-family="sans-serif" font-size="14" font-weight="bold" lengthAdjust="spacing" textLength="102.0264" x="818.9868" y="376.0234">MenuItemGrid</text></g><!--cluster CartScreen--><g class="cluster" data-qualified-name="App.CartProvider.Router.Protected Routes .Customer..CartScreen" data-source-line="30" id="ent0020"><rect fill="none" height="97.49" rx="2.5" ry="2.5" style="stroke:#181818;stroke-width:1;" width="130" x="1306" y="349.4883"/><rect fill="none" height="10" style="stroke:#181818;stroke-width:1;" width="15" x="1416" y="354.4883"/><rect fill="none" height="2" style="stroke:#181818;stroke-width:1;" width="4" x="1414" y="356.4883"/><rect fill="none" height="2" style="stroke:#181818;stroke-width:1;" width="4" x="1414" y="360.4883"/><text fill="#000000" font-family="sans-serif" font-size="14" font-weight="bold" lengthAdjust="spacing" textLength="77.6563" x="1332.1719" y="376.0234">CartScreen</text></g><!--cluster CheckoutScreen--><g class="cluster" data-qualified-name="App.CartProvider.Router.Protected Routes .Customer..CheckoutScreen" data-source-line="34" id="ent0022"><rect fill="none" height="97.49" rx="2.5" ry="2.5" style="stroke:#181818;stroke-width:1;" width="174" x="1460" y="349.4883"/><rect fill="none" height="10" style="stroke:#181818;stroke-width:1;" width="15" x="1614" y="354.4883"/><rect fill="none" height="2" style="stroke:#181818;stroke-width:1;" width="4" x="1612" y="356.4883"/><rect fill="none" height="2" style="stroke:#181818;stroke-width:1;" width="4" x="1612" y="360.4883"/><text fill="#000000" font-family="sans-serif" font-size="14" font-weight="bold" lengthAdjust="spacing" textLength="114.9053" x="1489.5474" y="376.0234">CheckoutScreen</text></g><!--cluster Protected Routes (Admin)--><g class="cluster" data-qualified-name="App.CartProvider.Router.Protected Routes .Admin." data-source-line="39" id="ent0024"><path d="M1841.5,306.4883 L2026.9746,306.4883 A3.75,3.75 0 0 1 2029.4746,308.9883 L2036.4746,328.9766 L2481.5,328.9766 A2.5,2.5 0 0 1 2484,331.4766 L2484,468.4783 A2.5,2.5 0 0 1 2481.5,470.9783 L1841.5,470.9783 A2.5,2.5 0 0 1 1839,468.4783 L1839,308.9883 A2.5,2.5 0 0 1 1841.5,306.4883" fill="none" style="stroke:#000000;stroke-width:1.5;"/><line style="stroke:#000000;stroke-width:1.5;" x1="1839" x2="2036.4746" y1="328.9766" y2="328.9766"/><text fill="#000000" font-family="sans-serif" font-size="14" font-weight="bold" lengthAdjust="spacing" textLength="184.4746" x="1843" y="322.0234">Protected Routes (Admin)</text></g><!--cluster AdminOrdersScreen--><g class="cluster" data-qualified-name="App.CartProvider.Router.Protected Routes .Admin..AdminOrdersScreen" data-source-line="41" id="ent0026"><rect fill="none" height="97.49" rx="2.5" ry="2.5" style="stroke:#181818;stroke-width:1;" width="159" x="1863" y="349.4883"/><rect fill="none" height="10" style="stroke:#181818;stroke-width:1;" width="15" x="2002" y="354.4883"/><rect fill="none" height="2" style="stroke:#181818;stroke-width:1;" width="4" x="2000" y="356.4883"/><rect fill="none" height="2" style="stroke:#181818;stroke-width:1;" width="4" x="2000" y="360.4883"/><text fill="#000000" font-family="sans-serif" font-size="14" font-weight="bold" lengthAdjust="spacing" textLength="143.9717" x="1870.5142" y="376.0234">AdminOrdersScreen</text></g><!--cluster Shared Components--><g class="cluster" data-qualified-name="Shared Components" data-source-line="50" id="ent0029"><path d="M2658.5,349.4883 L2804.2715,349.4883 A3.75,3.75 0 0 1 2806.7715,351.9883 L2813.7715,371.9766 L2983.5,371.9766 A2.5,2.5 0 0 1 2986,374.4766 L2986,444.4783 A2.5,2.5 0 0 1 2983.5,446.9783 L2658.5,446.9783 A2.5,2.5 0 0 1 2656,444.4783 L2656,351.9883 A2.5,2.5 0 0 1 2658.5,349.4883" fill="none" style="stroke:#000000;stroke-width:1.5;"/><line style="stroke:#000000;stroke-width:1.5;" x1="2656" x2="2813.7715" y1="371.9766" y2="371.9766"/><text fill="#000000" font-family="sans-serif" font-size="14" font-weight="bold" lengthAdjust="spacing" textLength="144.7715" x="2660" y="365.0234">Shared Components</text></g><!--entity LoginScreen--><g class="entity" data-qualified-name="App.CartProvider.Router.Public Routes.LoginScreen" data-source-line="8" id="ent0006"><rect fill="#F1F1F1" height="46.4883" rx="2.5" ry="2.5" style="stroke:#181818;stroke-width:0.5;" width="122.2568" x="93.87" y="384.4883"/><rect fill="#F1F1F1" height="10" style="stroke:#181818;stroke-width:0.5;" width="15" x="196.1268" y="389.4883"/><rect fill="#F1F1F1" height="2" style="stroke:#181818;stroke-width:0.5;" width="4" x="194.1268" y="391.4883"/><rect fill="#F1F1F1" height="2" style="stroke:#181818;stroke-width:0.5;" width="4" x="194.1268" y="395.4883"/><text fill="#000000" font-family="sans-serif" font-size="14" lengthAdjust="spacing" textLength="82.2568" x="108.87" y="418.0234">LoginScreen</text></g><!--entity wine_screen--><g class="entity" data-qualified-name="App.CartProvider.Router.Protected Routes .Customer..wine_screen" data-source-line="29" id="ent0019"><rect fill="#F1F1F1" height="62.9766" rx="2.5" ry="2.5" style="stroke:#181818;stroke-width:0.5;" width="146.7979" x="1652.6" y="376.2483"/><rect fill="#F1F1F1" height="10" style="stroke:#181818;stroke-width:0.5;" width="15" x="1779.3979" y="381.2483"/><rect fill="#F1F1F1" height="2" style="stroke:#181818;stroke-width:0.5;" width="4" x="1777.3979" y="383.2483"/><rect fill="#F1F1F1" height="2" style="stroke:#181818;stroke-width:0.5;" width="4" x="1777.3979" y="387.2483"/><text fill="#000000" font-family="sans-serif" font-size="14" lengthAdjust="spacing" textLength="101.124" x="1667.6" y="409.7834">WineListScreen</text><text fill="#000000" font-family="sans-serif" font-size="14" lengthAdjust="spacing" textLength="106.7979" x="1667.6" y="426.2717">[PLACEHOLDER]</text></g><!--entity HeroSection--><g class="entity" data-qualified-name="App.CartProvider.Router.Protected Routes .Customer..MenuScreen.HeroSection" data-source-line="13" id="ent0009"><rect fill="#F1F1F1" height="46.4883" rx="2.5" ry="2.5" style="stroke:#181818;stroke-width:0.5;" width="121.498" x="974.25" y="384.4883"/><rect fill="#F1F1F1" height="10" style="stroke:#181818;stroke-width:0.5;" width="15" x="1075.748" y="389.4883"/><rect fill="#F1F1F1" height="2" style="stroke:#181818;stroke-width:0.5;" width="4" x="1073.748" y="391.4883"/><rect fill="#F1F1F1" height="2" style="stroke:#181818;stroke-width:0.5;" width="4" x="1073.748" y="395.4883"/><text fill="#000000" font-family="sans-serif" font-size="14" lengthAdjust="spacing" textLength="81.498" x="989.25" y="418.0234">HeroSection</text></g><!--entity CategoryFilter--><g class="entity" data-qualified-name="App.CartProvider.Router.Protected Routes .Customer..MenuScreen.CategoryFilter" data-source-line="22" id="ent0015"><rect fill="#F1F1F1" height="46.4883" rx="2.5" ry="2.5" style="stroke:#181818;stroke-width:0.5;" width="135.1904" x="1130.4" y="384.4883"/><rect fill="#F1F1F1" height="10" style="stroke:#181818;stroke-width:0.5;" width="15" x="1245.5904" y="389.4883"/><rect fill="#F1F1F1" height="2" style="stroke:#181818;stroke-width:0.5;" width="4" x="1243.5904" y="391.4883"/><rect fill="#F1F1F1" height="2" style="stroke:#181818;stroke-width:0.5;" width="4" x="1243.5904" y="395.4883"/><text fill="#000000" font-family="sans-serif" font-size="14" lengthAdjust="spacing" textLength="95.1904" x="1145.4" y="418.0234">CategoryFilter</text></g><!--entity MenuItemModal--><g class="entity" data-qualified-name="App.CartProvider.Router.Protected Routes .Customer..MenuScreen.MenuItemModal" data-source-line="26" id="ent0018"><rect fill="#F1F1F1" height="46.4883" rx="2.5" ry="2.5" style="stroke:#181818;stroke-width:0.5;" width="148.623" x="960.69" y="511.5983"/><rect fill="#F1F1F1" height="10" style="stroke:#181818;stroke-width:0.5;" width="15" x="1089.313" y="516.5983"/><rect fill="#F1F1F1" height="2" style="stroke:#181818;stroke-width:0.5;" width="4" x="1087.313" y="518.5983"/><rect fill="#F1F1F1" height="2" style="stroke:#181818;stroke-width:0.5;" width="4" x="1087.313" y="522.5983"/><text fill="#000000" font-family="sans-serif" font-size="14" lengthAdjust="spacing" textLength="108.623" x="975.69" y="545.1334">MenuItemModal</text></g><!--entity ChatMessage--><g class="entity" data-qualified-name="App.CartProvider.Router.Protected Routes .Customer..MenuScreen.ConciergeSection.ChatHistory.ChatMessage" data-source-line="16" id="ent0012"><rect fill="#F1F1F1" height="46.4883" rx="2.5" ry="2.5" style="stroke:#181818;stroke-width:0.5;" width="129.7354" x="344.13" y="384.4883"/><rect fill="#F1F1F1" height="10" style="stroke:#181818;stroke-width:0.5;" width="15" x="453.8654" y="389.4883"/><rect fill="#F1F1F1" height="2" style="stroke:#181818;stroke-width:0.5;" width="4" x="451.8654" y="391.4883"/><rect fill="#F1F1F1" height="2" style="stroke:#181818;stroke-width:0.5;" width="4" x="451.8654" y="395.4883"/><text fill="#000000" font-family="sans-serif" font-size="14" lengthAdjust="spacing" textLength="89.7354" x="359.13" y="418.0234">ChatMessage</text></g><!--entity RecommendationCard--><g class="entity" data-qualified-name="App.CartProvider.Router.Protected Routes .Customer..MenuScreen.ConciergeSection.RecommendationCards.RecommendationCard" data-source-line="19" id="ent0014"><rect fill="#F1F1F1" height="46.4883" rx="2.5" ry="2.5" style="stroke:#181818;stroke-width:0.5;" width="190.124" x="529.94" y="384.4883"/><rect fill="#F1F1F1" height="10" style="stroke:#181818;stroke-width:0.5;" width="15" x="700.064" y="389.4883"/><rect fill="#F1F1F1" height="2" style="stroke:#181818;stroke-width:0.5;" width="4" x="698.064" y="391.4883"/><rect fill="#F1F1F1" height="2" style="stroke:#181818;stroke-width:0.5;" width="4" x="698.064" y="395.4883"/><text fill="#000000" font-family="sans-serif" font-size="14" lengthAdjust="spacing" textLength="150.124" x="544.94" y="418.0234">RecommendationCard</text></g><!--entity MenuItemCard--><g class="entity" data-qualified-name="App.CartProvider.Router.Protected Routes .Customer..MenuScreen.MenuItemGrid.MenuItemCard" data-source-line="24" id="ent0017"><rect fill="#F1F1F1" height="46.4883" rx="2.5" ry="2.5" style="stroke:#181818;stroke-width:0.5;" width="139.333" x="800.33" y="384.4883"/><rect fill="#F1F1F1" height="10" style="stroke:#181818;stroke-width:0.5;" width="15" x="919.663" y="389.4883"/><rect fill="#F1F1F1" height="2" style="stroke:#181818;stroke-width:0.5;" width="4" x="917.663" y="391.4883"/><rect fill="#F1F1F1" height="2" style="stroke:#181818;stroke-width:0.5;" width="4" x="917.663" y="395.4883"/><text fill="#000000" font-family="sans-serif" font-size="14" lengthAdjust="spacing" textLength="99.333" x="815.33" y="418.0234">MenuItemCard</text></g><!--entity CartItem--><g class="entity" data-qualified-name="App.CartProvider.Router.Protected Routes .Customer..CartScreen.CartItem" data-source-line="31" id="ent0021"><rect fill="#F1F1F1" height="46.4883" rx="2.5" ry="2.5" style="stroke:#181818;stroke-width:0.5;" width="98.5225" x="1321.74" y="384.4883"/><rect fill="#F1F1F1" height="10" style="stroke:#181818;stroke-width:0.5;" width="15" x="1400.2625" y="389.4883"/><rect fill="#F1F1F1" height="2" style="stroke:#181818;stroke-width:0.5;" width="4" x="1398.2625" y="391.4883"/><rect fill="#F1F1F1" height="2" style="stroke:#181818;stroke-width:0.5;" width="4" x="1398.2625" y="395.4883"/><text fill="#000000" font-family="sans-serif" font-size="14" lengthAdjust="spacing" textLength="58.5225" x="1336.74" y="418.0234">CartItem</text></g><!--entity OrderSummary--><g class="entity" data-qualified-name="App.CartProvider.Router.Protected Routes .Customer..CheckoutScreen.OrderSummary" data-source-line="35" id="ent0023"><rect fill="#F1F1F1" height="46.4883" rx="2.5" ry="2.5" style="stroke:#181818;stroke-width:0.5;" width="142.0879" x="1475.96" y="384.4883"/><rect fill="#F1F1F1" height="10" style="stroke:#181818;stroke-width:0.5;" width="15" x="1598.0479" y="389.4883"/><rect fill="#F1F1F1" height="2" style="stroke:#181818;stroke-width:0.5;" width="4" x="1596.0479" y="391.4883"/><rect fill="#F1F1F1" height="2" style="stroke:#181818;stroke-width:0.5;" width="4" x="1596.0479" y="395.4883"/><text fill="#000000" font-family="sans-serif" font-size="14" lengthAdjust="spacing" textLength="102.0879" x="1490.96" y="418.0234">OrderSummary</text></g><!--entity AdminDashboardScreen--><g class="entity" data-qualified-name="App.CartProvider.Router.Protected Routes .Admin..AdminDashboardScreen" data-source-line="40" id="ent0025"><rect fill="#F1F1F1" height="46.4883" rx="2.5" ry="2.5" style="stroke:#181818;stroke-width:0.5;" width="202.7295" x="2037.64" y="384.4883"/><rect fill="#F1F1F1" height="10" style="stroke:#181818;stroke-width:0.5;" width="15" x="2220.3695" y="389.4883"/><rect fill="#F1F1F1" height="2" style="stroke:#181818;stroke-width:0.5;" width="4" x="2218.3695" y="391.4883"/><rect fill="#F1F1F1" height="2" style="stroke:#181818;stroke-width:0.5;" width="4" x="2218.3695" y="395.4883"/><text fill="#000000" font-family="sans-serif" font-size="14" lengthAdjust="spacing" textLength="162.7295" x="2052.64" y="418.0234">AdminDashboardScreen</text></g><!--entity AdminInventoryScreen--><g class="entity" data-qualified-name="App.CartProvider.Router.Protected Routes .Admin..AdminInventoryScreen" data-source-line="44" id="ent0028"><rect fill="#F1F1F1" height="46.4883" rx="2.5" ry="2.5" style="stroke:#181818;stroke-width:0.5;" width="192.3389" x="2275.83" y="384.4883"/><rect fill="#F1F1F1" height="10" style="stroke:#181818;stroke-width:0.5;" width="15" x="2448.1689" y="389.4883"/><rect fill="#F1F1F1" height="2" style="stroke:#181818;stroke-width:0.5;" width="4" x="2446.1689" y="391.4883"/><rect fill="#F1F1F1" height="2" style="stroke:#181818;stroke-width:0.5;" width="4" x="2446.1689" y="395.4883"/><text fill="#000000" font-family="sans-serif" font-size="14" lengthAdjust="spacing" textLength="152.3389" x="2290.83" y="418.0234">AdminInventoryScreen</text></g><!--entity OrderCard--><g class="entity" data-qualified-name="App.CartProvider.Router.Protected Routes .Admin..AdminOrdersScreen.OrderCard" data-source-line="42" id="ent0027"><rect fill="#F1F1F1" height="46.4883" rx="2.5" ry="2.5" style="stroke:#181818;stroke-width:0.5;" width="110.9023" x="1884.55" y="384.4883"/><rect fill="#F1F1F1" height="10" style="stroke:#181818;stroke-width:0.5;" width="15" x="1975.4523" y="389.4883"/><rect fill="#F1F1F1" height="2" style="stroke:#181818;stroke-width:0.5;" width="4" x="1973.4523" y="391.4883"/><rect fill="#F1F1F1" height="2" style="stroke:#181818;stroke-width:0.5;" width="4" x="1973.4523" y="395.4883"/><text fill="#000000" font-family="sans-serif" font-size="14" lengthAdjust="spacing" textLength="70.9023" x="1899.55" y="418.0234">OrderCard</text></g><!--entity EntityModal--><g class="entity" data-qualified-name="Shared Components.EntityModal" data-source-line="51" id="ent0030"><rect fill="#F1F1F1" height="46.4883" rx="2.5" ry="2.5" style="stroke:#181818;stroke-width:0.5;" width="119.3584" x="2672.32" y="384.4883"/><rect fill="#F1F1F1" height="10" style="stroke:#181818;stroke-width:0.5;" width="15" x="2771.6784" y="389.4883"/><rect fill="#F1F1F1" height="2" style="stroke:#181818;stroke-width:0.5;" width="4" x="2769.6784" y="391.4883"/><rect fill="#F1F1F1" height="2" style="stroke:#181818;stroke-width:0.5;" width="4" x="2769.6784" y="395.4883"/><text fill="#000000" font-family="sans-serif" font-size="14" lengthAdjust="spacing" textLength="79.3584" x="2687.32" y="418.0234">EntityModal</text></g><!--entity ProtectedRoute--><g class="entity" data-qualified-name="Shared Components.ProtectedRoute" data-source-line="52" id="ent0031"><rect fill="#F1F1F1" height="46.4883" rx="2.5" ry="2.5" style="stroke:#181818;stroke-width:0.5;" width="143.2979" x="2826.35" y="384.4883"/><rect fill="#F1F1F1" height="10" style="stroke:#181818;stroke-width:0.5;" width="15" x="2949.6479" y="389.4883"/><rect fill="#F1F1F1" height="2" style="stroke:#181818;stroke-width:0.5;" width="4" x="2947.6479" y="391.4883"/><rect fill="#F1F1F1" height="2" style="stroke:#181818;stroke-width:0.5;" width="4" x="2947.6479" y="395.4883"/><text fill="#000000" font-family="sans-serif" font-size="14" lengthAdjust="spacing" textLength="103.2979" x="2841.35" y="418.0234">ProtectedRoute</text></g><g class="entity" data-qualified-name="GMN32" data-source-line="56" id="ent0033"><path d="M2572.42,499.2183 L2572.42,570.4605 A0,0 0 0 0 2572.42,570.4605 L3223.5709,570.4605 A0,0 0 0 0 3223.5709,570.4605 L3223.5709,509.2183 L3213.5709,499.2183 L2902,499.2183 L2898,431.3883 L2894,499.2183 L2572.42,499.2183 A0,0 0 0 0 2572.42,499.2183" fill="#FEFFDD" style="stroke:#181818;stroke-width:0.5;"/><path d="M3213.5709,499.2183 L3213.5709,509.2183 L3223.5709,509.2183 L3213.5709,499.2183" fill="#FEFFDD" style="stroke:#181818;stroke-width:0.5;"/><text fill="#000000" font-family="sans-serif" font-size="13" font-weight="bold" lengthAdjust="spacing" textLength="138.3916" x="2578.42" y="516.7866">Key Design Patterns:</text><text fill="#000000" font-family="sans-serif" font-size="13" lengthAdjust="spacing" textLength="561.8438" x="2578.42" y="532.0972">1. Component Reusability: EntityModal used for all CRUD operations (menu items, wines)</text><text fill="#000000" font-family="sans-serif" font-size="13" lengthAdjust="spacing" textLength="549.7261" x="2578.42" y="547.4077">2. Global State: CartContext provides cart state to all components without prop drilling</text><text fill="#000000" font-family="sans-serif" font-size="13" lengthAdjust="spacing" textLength="630.1509" x="2578.42" y="562.7183">3. Route Protection: ProtectedRoute component guards admin/customer routes based on auth state</text></g><?plantuml-src fLLHRvim47xdLvpor4XRgcqFawAgKfPaJRL4ZK3J7jPfCd05gs0ZswID9lxxpa09IPf0DvumV7VV-VFdEyDDWk2bJ1cOiWU4z-0Y2sWXqqmA50OM71LJGRnrd8m5Zon264ooR6JqyxsuSALiWOS3O1heB_nnW9ucO4e4QoKtF4H5KJU9z5a2dc46ALeOVAvZsy0woLwYBqe-QLIkp4sPgQgsMiBcSvMaNkx2xREtQFAjSp_XGHMX1mSXzWaQ8POoui8B5ABOGnLzQ9Gq61WCQoQucERQo1JLy3pf2aLUSRu2suSkK4cFIBWK7KXIFA1JZR26dqXz41Gpi-1KjDgUmH_7h51hqk1aHD63sqLwJr64p9PB7WbrxngEOzzOIj6b9fau8bM-yeHSrm6svtbhCBrHFEmb-ql0oSABdemh6RB4wOu-OyR13ovmIHwe77alVgwNa-bySRUSpTrVvTLx8iHlVNn93YLJfgUhBTIM_t-LJsCC7kdczIIzKzH-l3oblhZj8Fwtspy9Kouwhdw9cJ4T-vBEtklIj8INXUktxF9LNnLTFBTYG-za-hFzi7ehdA8rEhoOAHAY6HbDqzqnp8NXPhlpw-vF8sIfeyqhw0Fuqb0l9UoLV_qDjp13pIC1QsReGWezlhhqh-dlXr5hhBcOQ-RpX9Z6RKR8DPNt81Mm986f-tq6CgC9Q9i77HmraXmu-L6_AxskXvJuumZQ4srSchOUQv1Lqqn3O8UiBaUUaMNsPcFstfYOzcJH6OIA9maN4QN-DAeyyx9rgc9y84DBdoWlMoEpHtGPr1C6L6KwdzcTKRTdkOchGXngYs0bTFu2?></g></svg>