<?plantuml 1.2026.2?><svg xmlns="http://www.w3.org/2000/svg" xmlns:xlink="http://www.w3.org/1999/xlink" contentStyleType="text/css" data-diagram-type="DESCRIPTION" height="632px" preserveAspectRatio="none" style="width:1864px;height:632px;background:#FFFFFF;" version="1.1" viewBox="0 0 1864 632" width="1864px" zoomAndPan="magnify"><title>Smart Cafe - Use Case Diagram</title><defs/><g><g class="title" data-source-line="1"><text fill="#000000" font-family="sans-serif" font-size="14" font-weight="bold" lengthAdjust="spacing" textLength="228.1084" x="810.9975" y="23.5352">Smart Cafe - Use Case Diagram</text></g><!--cluster External Systems--><g class="cluster" data-qualified-name="External Systems" data-source-line="8" id="ent0004"><path d="M520.07,495.3983 L644.028,495.3983 A3.75,3.75 0 0 1 646.528,497.8983 L653.528,517.8866 L866.07,517.8866 A2.5,2.5 0 0 1 868.57,520.3866 L868.57,622.8783 A2.5,2.5 0 0 1 866.07,625.3783 L520.07,625.3783 A2.5,2.5 0 0 1 517.57,622.8783 L517.57,497.8983 A2.5,2.5 0 0 1 520.07,495.3983" fill="none" style="stroke:#000000;stroke-width:1.5;"/><line style="stroke:#000000;stroke-width:1.5;" x1="517.57" x2="653.528" y1="517.8866" y2="517.8866"/><text fill="#000000" font-family="sans-serif" font-size="14" font-weight="bold" lengthAdjust="spacing" textLength="122.958" x="521.57" y="510.9334">External Systems</text><text fill="#000000" font-family="sans-serif" font-size="14" font-style="italic" lengthAdjust="spacing" textLength="70.0752" x="662.0324" y="533.4217">&#171;External&#187;</text></g><!--cluster Smart Cafe System--><g class="cluster" data-qualified-name="Smart Cafe System" data-source-line="14" id="ent0007"><path d="M110.07,182.9683 L245.8815,182.9683 A3.75,3.75 0 0 1 248.3815,185.4683 L255.3815,205.4566 L1519.07,205.4566 A2.5,2.5 0 0 1 1521.57,207.9566 L1521.57,426.9083 A2.5,2.5 0 0 1 1519.07,429.4083 L110.07,429.4083 A2.5,2.5 0 0 1 107.57,426.9083 L107.57,185.4683 A2.5,2.5 0 0 1 110.07,182.9683" fill="none" style="stroke:#000000;stroke-width:1.5;"/><line style="stroke:#000000;stroke-width:1.5;" x1="107.57" x2="255.3815" y1="205.4566" y2="205.4566"/><text fill="#000000" font-family="sans-serif" font-size="14" font-weight="bold" lengthAdjust="spacing" textLength="134.8115" x="111.57" y="198.5034">Smart Cafe System</text></g><!--entity firebase--><g class="entity" data-qualified-name="External Systems.firebase" data-source-line="9" id="ent0005"><path d="M712.0359,555.5738 C715.6,550.4886 718.8192,550.423 722.3554,555.6019 C725.5159,550.0139 729.4263,551.1824 732.7708,555.4066 C735.4438,549.2202 740.6388,548.2425 744.6779,554.0504 C748.2798,549.2592 752.1635,549.6971 755.6804,554.1517 C758.9138,548.3072 763.1254,548.6303 767.0403,553.424 C771.6346,547.4325 776.4398,547.6401 779.7014,554.7154 C781.992,549.8647 785.805,548.6534 789.4982,553.263 C793.8154,547.5442 798.0487,548.7027 800.8833,554.7033 C803.3149,549.7582 808.449,548.7989 811.7912,553.6938 C816.1144,549.3571 820.1925,549.1846 823.2282,555.1265 C827.2728,549.0931 832.7657,549.0556 835.9196,555.9978 C838.6751,550.8789 842.6998,551.1153 845.8275,555.6144 C852.2751,558.4755 852.7443,562.3179 848.1949,567.3899 C855.2072,567.823 857.0236,573.2437 852.5811,578.2873 C857.4309,584.2931 855.1792,588.6705 848.5476,591.0468 C853.7165,595.5973 852.618,600.2958 846.6643,603.1099 C843.013,607.5375 838.4278,608.1615 835.8054,602.0497 C832.5477,607.4194 828.6364,607.5683 824.3391,603.2845 C820.4146,608.7304 815.8893,609.7234 811.7735,603.4903 C809.2159,608.1103 804.8779,609.49 801.6268,604.2004 C797.013,610.6559 792.8676,609.428 789.2684,603.2109 C786.2825,607.8444 783.1969,608.838 779.1814,604.3493 C774.2366,610.3616 770.7611,608.958 767.303,602.8876 C764.0192,608.7538 759.3452,607.8713 755.8773,603.0852 C753.2446,608.1919 749.0672,608.8422 745.8891,603.6122 C742.2479,609.1627 737.5534,608.7092 734.6927,602.8465 C732.026,608.6347 726.4902,608.9717 723.2244,603.4542 C717.971,609.8412 713.7212,608.3274 710.2098,601.7108 C704.6223,600.4111 702.9099,596.1133 707.1685,591.7941 C699.9745,590.031 697.9213,585.5252 703.0725,579.6114 C698.5883,574.3462 699.831,568.1127 707.0566,566.371 C703.0204,560.1582 705.6123,556.9629 712.0359,555.5738" fill="#F1F1F1" style="stroke:#181818;stroke-width:0.5;"/><text fill="#000000" font-family="sans-serif" font-size="14" lengthAdjust="spacing" textLength="56.5605" x="717.09" y="574.9334">Firebase</text><text fill="#000000" font-family="sans-serif" font-size="14" lengthAdjust="spacing" textLength="120.9482" x="717.09" y="591.4217">(Auth + Firestore)</text></g><!--entity groq--><g class="entity" data-qualified-name="External Systems.groq" data-source-line="10" id="ent0006"><path d="M543.5289,556.175 C546.056,551.0718 550.8249,551.6195 553.7689,555.7108 C557.0738,549.7008 561.4665,548.2834 566.4296,553.9062 C570.722,547.9912 576.3678,549.1074 579.0564,555.5456 C581.8942,550.4327 585.7254,550.2957 589.3387,554.7085 C593.6142,548.911 597.7539,548.5836 602.1824,554.5412 C605.0511,548.6534 608.9537,548.6772 612.9397,553.4094 C616.6305,548.5799 621.1603,548.5131 624.4407,553.8727 C627.9372,547.4956 633.2305,549.1435 636.2765,554.3337 C640.6718,548.5996 645.1443,549.3269 648.0074,555.8055 C651.2517,550.8296 656.9595,549.9179 660.1703,555.8429 C667.8047,558.2773 667.736,562.4799 663.3986,568.0742 C670.8177,568.9014 671.9264,573.2287 669.2679,579.317 C674.1723,584.6245 672.5566,589.9771 665.5027,591.627 C668.5403,597.658 666.5335,601.5488 659.8495,602.5471 C657.7335,607.9138 653.919,609.5709 649.3693,605.1541 C646.4401,611.1081 641.2567,611.0342 637.1791,606.4872 C634.546,611.8556 630.261,613.7968 625.7664,608.4744 C622.6644,613.8882 618.4354,614.9135 613.9697,610.038 C611.2502,615.7621 605.2906,616.8214 601.1336,611.7467 C596.9631,616.3262 592.3896,616.3188 589.1992,610.6098 C584.0368,616.2321 579.4456,614.4566 577.1292,607.8099 C572.8273,611.9869 567.8914,610.5388 566.0097,605.0311 C563.2203,610.7537 558.5633,610.577 555.5586,605.2344 C550.7024,610.6383 545.6853,609.7215 543.244,602.8181 C536.1254,600.905 535.9696,596.0209 539.6373,590.8556 C533.3593,589.5283 531.5791,585.3729 535.047,579.9452 C530.898,573.8886 532.0577,569.4486 539.2045,567.0276 C535.1735,561.7268 537.0792,557.2995 543.5289,556.175" fill="#F1F1F1" style="stroke:#181818;stroke-width:0.5;"/><text fill="#000000" font-family="sans-serif" font-size="14" lengthAdjust="spacing" textLength="59.1172" x="548.88" y="574.9334">Groq API</text><text fill="#000000" font-family="sans-serif" font-size="14" lengthAdjust="spacing" textLength="103.3799" x="548.88" y="591.4217">(LLM Inference)</text></g><!--entity UC1--><g class="entity" data-qualified-name="Smart Cafe System.UC1" data-source-line="17" id="ent0008"><ellipse cx="497.5709" cy="243.4065" fill="#F1F1F1" rx="63.9409" ry="15.1882" style="stroke:#181818;stroke-width:0.5;"/><text fill="#000000" font-family="sans-serif" font-size="14" lengthAdjust="spacing" textLength="89.7695" x="452.6861" y="248.1506">Browse Menu</text></g><!--entity UC2--><g class="entity" data-qualified-name="Smart Cafe System.UC2" data-source-line="18" id="ent0009"><ellipse cx="497.5656" cy="389.1301" fill="#F1F1F1" rx="82.3456" ry="23.8818" style="stroke:#181818;stroke-width:0.5;"/><text fill="#000000" font-family="sans-serif" font-size="14" lengthAdjust="spacing" textLength="41.2754" x="476.9279" y="381.9553">Get AI</text><text fill="#000000" font-family="sans-serif" font-size="14" lengthAdjust="spacing" textLength="125.3027" x="434.9142" y="398.4436">Recommendations</text></g><!--entity UC3--><g class="entity" data-qualified-name="Smart Cafe System.UC3" data-source-line="19" id="ent0010"><ellipse cx="646.5725" cy="243.4043" fill="#F1F1F1" rx="49.6625" ry="24.286" style="stroke:#181818;stroke-width:0.5;"/><text fill="#000000" font-family="sans-serif" font-size="14" lengthAdjust="spacing" textLength="72.29" x="610.4275" y="242.9304">Customize</text><text fill="#000000" font-family="sans-serif" font-size="14" lengthAdjust="spacing" textLength="37.2764" x="627.9343" y="259.4186">Items</text></g><!--entity UC4--><g class="entity" data-qualified-name="Smart Cafe System.UC4" data-source-line="20" id="ent0011"><ellipse cx="185.5747" cy="243.4092" fill="#F1F1F1" rx="62.4047" ry="14.8809" style="stroke:#181818;stroke-width:0.5;"/><text fill="#000000" font-family="sans-serif" font-size="14" lengthAdjust="spacing" textLength="85.5518" x="142.7989" y="248.1534">Manage Cart</text></g><!--entity UC5--><g class="entity" data-qualified-name="Smart Cafe System.UC5" data-source-line="21" id="ent0012"><ellipse cx="340.5663" cy="243.4073" fill="#F1F1F1" rx="58.0563" ry="14.659" style="stroke:#181818;stroke-width:0.5;"/><text fill="#000000" font-family="sans-serif" font-size="14" lengthAdjust="spacing" textLength="77.8613" x="301.6356" y="248.1514">Place Order</text></g><!--entity UC6--><g class="entity" data-qualified-name="Smart Cafe System.UC6" data-source-line="22" id="ent0013"><ellipse cx="251.5727" cy="389.1271" fill="#F1F1F1" rx="55.2927" ry="24.2788" style="stroke:#181818;stroke-width:0.5;"/><text fill="#000000" font-family="sans-serif" font-size="14" lengthAdjust="spacing" textLength="81.04" x="211.0527" y="388.6646">Track Order</text><text fill="#000000" font-family="sans-serif" font-size="14" lengthAdjust="spacing" textLength="41.5693" x="230.7881" y="405.1528">Status</text></g><!--entity UC7--><g class="entity" data-qualified-name="Smart Cafe System.UC7" data-source-line="25" id="ent0014"><ellipse cx="1254.5686" cy="243.41" fill="#F1F1F1" rx="69.9586" ry="16.3917" style="stroke:#181818;stroke-width:0.5;"/><text fill="#000000" font-family="sans-serif" font-size="14" lengthAdjust="spacing" textLength="105.5332" x="1201.802" y="248.1542">Login as Admin</text></g><!--entity UC8--><g class="entity" data-qualified-name="Smart Cafe System.UC8" data-source-line="26" id="ent0015"><ellipse cx="1432.5682" cy="243.4038" fill="#F1F1F1" rx="73.3982" ry="24.1155" style="stroke:#181818;stroke-width:0.5;"/><text fill="#000000" font-family="sans-serif" font-size="14" lengthAdjust="spacing" textLength="109.9424" x="1377.597" y="243.2011">View Dashboard</text><text fill="#000000" font-family="sans-serif" font-size="14" lengthAdjust="spacing" textLength="49.1777" x="1407.9793" y="259.6894">Metrics</text></g><!--entity UC9--><g class="entity" data-qualified-name="Smart Cafe System.UC9" data-source-line="27" id="ent0016"><ellipse cx="777.5724" cy="243.4104" fill="#F1F1F1" rx="46.1024" ry="25.4421" style="stroke:#181818;stroke-width:0.5;"/><text fill="#000000" font-family="sans-serif" font-size="14" lengthAdjust="spacing" textLength="52.7393" x="751.2027" y="238.6465">Manage</text><text fill="#000000" font-family="sans-serif" font-size="14" lengthAdjust="spacing" textLength="63.335" x="745.9049" y="255.1348">Inventory</text></g><!--entity UC10--><g class="entity" data-qualified-name="Smart Cafe System.UC10" data-source-line="28" id="ent0017"><ellipse cx="920.5729" cy="243.4105" fill="#F1F1F1" rx="61.6129" ry="24.1322" style="stroke:#181818;stroke-width:0.5;"/><text fill="#000000" font-family="sans-serif" font-size="14" lengthAdjust="spacing" textLength="91.4648" x="874.8405" y="243.1811">Update Order</text><text fill="#000000" font-family="sans-serif" font-size="14" lengthAdjust="spacing" textLength="41.5693" x="899.7883" y="259.6694">Status</text></g><!--entity UC11--><g class="entity" data-qualified-name="Smart Cafe System.UC11" data-source-line="29" id="ent0018"><ellipse cx="1083.5713" cy="243.4085" fill="#F1F1F1" rx="65.9913" ry="24.3602" style="stroke:#181818;stroke-width:0.5;"/><text fill="#000000" font-family="sans-serif" font-size="14" lengthAdjust="spacing" textLength="52.7529" x="1057.1948" y="236.9994">[Future]</text><text fill="#000000" font-family="sans-serif" font-size="14" lengthAdjust="spacing" textLength="97.248" x="1034.9473" y="253.4876">View Analytics</text></g><!--entity customer--><g class="entity" data-qualified-name="customer" data-source-line="4" id="ent0002"><ellipse cx="224.5631" cy="59.7283" fill="#F1F1F1" rx="8" ry="8" style="stroke:#181818;stroke-width:0.5;"/><path d="M224.5631,67.7283 L224.5631,94.7283 M211.5631,75.7283 L237.5631,75.7283 M224.5631,94.7283 L211.5631,109.7283 M224.5631,94.7283 L237.5631,109.7283" fill="none" style="stroke:#181818;stroke-width:0.5;"/><text fill="#000000" font-family="sans-serif" font-size="14" lengthAdjust="spacing" textLength="65.9463" x="191.59" y="124.7634">Customer</text></g><!--entity admin--><g class="entity" data-qualified-name="admin" data-source-line="5" id="ent0003"><ellipse cx="1084.5716" cy="51.4883" fill="#F1F1F1" rx="8" ry="8" style="stroke:#181818;stroke-width:0.5;"/><path d="M1084.5716,59.4883 L1084.5716,86.4883 M1071.5716,67.4883 L1097.5716,67.4883 M1084.5716,86.4883 L1071.5716,101.4883 M1084.5716,86.4883 L1097.5716,101.4883" fill="none" style="stroke:#181818;stroke-width:0.5;"/><text fill="#000000" font-family="sans-serif" font-size="14" lengthAdjust="spacing" textLength="44.2764" x="1047.22" y="116.5234">Admin</text><text fill="#000000" font-family="sans-serif" font-size="14" lengthAdjust="spacing" textLength="74.7031" x="1047.22" y="133.0117">(Cafe Staff)</text></g><g class="entity" data-qualified-name="GMN34" data-source-line="55" id="ent0035"><path d="M1538.02,345.8483 L1538.02,432.401 L1753.125,432.401 L1753.125,355.8483 L1743.125,345.8483 L1538.02,345.8483" fill="#FEFFDD" style="stroke:#181818;stroke-width:0.5;"/><path d="M1743.125,345.8483 L1743.125,355.8483 L1753.125,355.8483 L1743.125,345.8483" fill="#FEFFDD" style="stroke:#181818;stroke-width:1;"/><text fill="#000000" font-family="sans-serif" font-size="13" font-weight="bold" lengthAdjust="spacing" textLength="51.7334" x="1544.02" y="363.4166">Legend:</text><text fill="#000000" font-family="sans-serif" font-size="13" lengthAdjust="spacing" textLength="172.1421" x="1544.02" y="378.7272">- Blue: Customer use cases</text><text fill="#000000" font-family="sans-serif" font-size="13" lengthAdjust="spacing" textLength="166.334" x="1544.02" y="394.0377">- Yellow: Admin use cases</text><text fill="#000000" font-family="sans-serif" font-size="13" lengthAdjust="spacing" textLength="194.105" x="1544.02" y="409.3483">- Gray dashed: Future features</text><text fill="#000000" font-family="sans-serif" font-size="13" lengthAdjust="spacing" textLength="172.3516" x="1544.02" y="424.6588">- Orange: External systems</text></g><!--link UC1 to UC2--><g class="link" data-entity-1="ent0008" data-entity-2="ent0009" data-link-type="dependency" data-source-line="32" id="lnk19"><path d="M497.57,258.9783 C497.57,283.8883 497.57,328.8383 497.57,358.7683" fill="none" id="UC1-to-UC2" style="stroke:#181818;stroke-width:1;stroke-dasharray:7,7;"/><polygon fill="#181818" points="497.57,364.7683,501.57,355.7683,497.57,359.7683,493.57,355.7683,497.57,364.7683" style="stroke:#181818;stroke-width:1;"/><text fill="#000000" font-family="sans-serif" font-size="13" lengthAdjust="spacing" textLength="65.9839" x="498.57" y="312.4166">&#171;includes&#187;</text></g><!--link UC5 to UC6--><g class="link" data-entity-1="ent0012" data-entity-2="ent0013" data-link-type="dependency" data-source-line="33" id="lnk20"><path d="M332.03,258.1883 C316.72,282.9183 287.589,329.9572 268.899,360.1372" fill="none" id="UC5-to-UC6" style="stroke:#181818;stroke-width:1;stroke-dasharray:7,7;"/><polygon fill="#181818" points="265.74,365.2383,273.8792,359.6927,268.3725,360.9874,267.0778,355.4807,265.74,365.2383" style="stroke:#181818;stroke-width:1;"/><text fill="#000000" font-family="sans-serif" font-size="13" lengthAdjust="spacing" textLength="63.8193" x="307.66" y="312.4166">&#171;extends&#187;</text></g><!--link customer to UC1--><g class="link" data-entity-1="ent0002" data-entity-2="ent0008" data-link-type="dependency" data-source-line="37" id="lnk21"><path d="M257.89,101.8883 C297.33,116.1183 364.24,142.5683 416.57,174.9683 C441.93,190.6683 463.4749,209.5911 478.9549,224.2611" fill="none" id="customer-to-UC1" style="stroke:#181818;stroke-width:1;"/><polygon fill="#181818" points="483.31,228.3883,479.5289,219.2942,479.6808,224.949,474.026,225.1009,483.31,228.3883" style="stroke:#181818;stroke-width:1;"/></g><!--link customer to UC2--><g class="link" data-entity-1="ent0002" data-entity-2="ent0009" data-link-type="dependency" data-source-line="38" id="lnk22"><path d="M191.2,103.6483 C162.64,116.9183 123.41,140.4083 105.57,174.9683 C86.42,212.0383 80.73,235.3283 105.57,268.8483 C125.55,295.8183 323.3374,346.4508 428.9274,371.9308" fill="none" id="customer-to-UC2" style="stroke:#181818;stroke-width:1;"/><polygon fill="#181818" points="434.76,373.3383,426.9494,367.3387,429.8995,372.1654,425.0728,375.1155,434.76,373.3383" style="stroke:#181818;stroke-width:1;"/></g><!--link customer to UC3--><g class="link" data-entity-1="ent0002" data-entity-2="ent0010" data-link-type="dependency" data-source-line="39" id="lnk23"><path d="M257.95,92.4583 C323.39,97.5783 471.46,115.3583 578.57,174.9683 C598.91,186.2883 613.4953,200.782 626.0153,215.782" fill="none" id="customer-to-UC3" style="stroke:#181818;stroke-width:1;"/><polygon fill="#181818" points="629.86,220.3883,627.1638,210.9157,626.6561,216.5497,621.022,216.042,629.86,220.3883" style="stroke:#181818;stroke-width:1;"/></g><!--link customer to UC4--><g class="link" data-entity-1="ent0002" data-entity-2="ent0011" data-link-type="dependency" data-source-line="40" id="lnk24"><path d="M214.93,128.0283 C206.58,160.5483 196.4639,199.9872 190.6539,222.5872" fill="none" id="customer-to-UC4" style="stroke:#181818;stroke-width:1;"/><polygon fill="#181818" points="189.16,228.3983,195.2749,220.6776,190.4049,223.5557,187.5268,218.6858,189.16,228.3983" style="stroke:#181818;stroke-width:1;"/></g><!--link customer to UC5--><g class="link" data-entity-1="ent0002" data-entity-2="ent0012" data-link-type="dependency" data-source-line="41" id="lnk25"><path d="M253.24,128.0283 C278.2,160.7183 309.3484,201.5198 326.5084,223.9898" fill="none" id="customer-to-UC5" style="stroke:#181818;stroke-width:1;"/><polygon fill="#181818" points="330.15,228.7583,327.8666,219.1778,327.1153,224.7845,321.5086,224.0333,330.15,228.7583" style="stroke:#181818;stroke-width:1;"/></g><!--link customer to UC6--><g class="link" data-entity-1="ent0002" data-entity-2="ent0013" data-link-type="dependency" data-source-line="42" id="lnk26"><path d="M191.41,93.5883 C149.05,99.5383 77.31,116.7283 44.57,165.9683 C7.68,221.4383 6,261.5283 44.57,315.8483 C78.84,364.1083 141.8857,379.7545 190.7857,385.1145" fill="none" id="customer-to-UC6" style="stroke:#181818;stroke-width:1;"/><polygon fill="#181818" points="196.75,385.7683,188.2394,380.8115,191.7798,385.2235,187.3677,388.7638,196.75,385.7683" style="stroke:#181818;stroke-width:1;"/></g><!--link admin to UC7--><g class="link" data-entity-1="ent0003" data-entity-2="ent0014" data-link-type="dependency" data-source-line="44" id="lnk27"><path d="M1122.3,124.1983 C1158.29,156.3683 1206.4064,199.36 1233.1364,223.25" fill="none" id="admin-to-UC7" style="stroke:#181818;stroke-width:1;"/><polygon fill="#181818" points="1237.61,227.2483,1233.5651,218.2684,1233.882,223.9163,1228.234,224.2332,1237.61,227.2483" style="stroke:#181818;stroke-width:1;"/></g><!--link admin to UC8--><g class="link" data-entity-1="ent0003" data-entity-2="ent0015" data-link-type="dependency" data-source-line="45" id="lnk28"><path d="M1122.23,98.8383 C1173.68,111.1283 1267.95,136.8583 1341.57,174.9683 C1365.67,187.4383 1385.609,202.2412 1403.129,216.7512" fill="none" id="admin-to-UC8" style="stroke:#181818;stroke-width:1;"/><polygon fill="#181818" points="1407.75,220.5783,1403.3699,211.757,1403.8992,217.389,1398.2671,217.9183,1407.75,220.5783" style="stroke:#181818;stroke-width:1;"/></g><!--link admin to UC9--><g class="link" data-entity-1="ent0003" data-entity-2="ent0016" data-link-type="dependency" data-source-line="46" id="lnk29"><path d="M1047.13,97.6783 C997.19,108.5283 907.43,132.4583 841.57,174.9683 C823.26,186.7783 810.2484,200.2355 798.4584,214.7155" fill="none" id="admin-to-UC9" style="stroke:#181818;stroke-width:1;"/><polygon fill="#181818" points="794.67,219.3683,803.4544,214.9148,797.827,215.491,797.2508,209.8636,794.67,219.3683" style="stroke:#181818;stroke-width:1;"/></g><!--link admin to UC10--><g class="link" data-entity-1="ent0003" data-entity-2="ent0017" data-link-type="dependency" data-source-line="47" id="lnk30"><path d="M1046.94,125.3283 C1015.17,154.7683 975.0711,191.9103 948.2411,216.7703" fill="none" id="admin-to-UC10" style="stroke:#181818;stroke-width:1;"/><polygon fill="#181818" points="943.84,220.8483,953.1604,217.6654,947.5076,217.45,947.7231,211.7972,943.84,220.8483" style="stroke:#181818;stroke-width:1;"/></g><!--link UC7 to firebase--><g class="link" data-entity-1="ent0014" data-entity-2="ent0005" data-link-type="association" data-source-line="50" id="lnk31"><path d="M1295.96,256.9083 C1310.32,261.0183 1326.58,265.4083 1341.57,268.8483 C1435.97,290.5283 1708.42,271.5583 1770.57,345.8483 C1796.68,377.0583 1797.26,406.6983 1770.57,437.4083 C1710.32,506.7083 1074.81,556.5283 853.24,571.8983" fill="none" id="UC7-firebase" style="stroke:#181818;stroke-width:1;"/><text fill="#000000" font-family="sans-serif" font-size="13" lengthAdjust="spacing" textLength="64.7334" x="1791.37" y="394.1966">OAuth 2.0</text></g><!--link UC2 to groq--><g class="link" data-entity-1="ent0009" data-entity-2="ent0006" data-link-type="association" data-source-line="51" id="lnk32"><path d="M510.2,413.0283 C528.62,446.4383 562.92,508.6283 583.55,546.0383" fill="none" id="UC2-groq" style="stroke:#181818;stroke-width:1;"/><text fill="#000000" font-family="sans-serif" font-size="13" lengthAdjust="spacing" textLength="54.501" x="546.98" y="475.9666">REST API</text></g><!--link UC9 to firebase--><g class="link" data-entity-1="ent0016" data-entity-2="ent0005" data-link-type="association" data-source-line="52" id="lnk33"><path d="M777.57,269.1283 C777.57,328.8683 777.57,480.9983 777.57,546.3283" fill="none" id="UC9-firebase" style="stroke:#181818;stroke-width:1;"/><text fill="#000000" font-family="sans-serif" font-size="13" lengthAdjust="spacing" textLength="109.3955" x="778.57" y="394.1966">CRUD Operations</text></g><!--link UC11 to GMN34--><g class="link" data-entity-1="ent0018" data-entity-2="ent0035" data-link-type="association" data-source-line="55" id="lnk36"><path d="M1133.61,259.5783 C1144.75,262.7883 1156.53,266.0483 1167.57,268.8483 C1323.63,308.4783 1366.45,302.6883 1521.57,345.8483 C1526.83,347.3083 1532.19,348.8683 1537.59,350.4983" fill="none" id="UC11-GMN34" style="stroke:#181818;stroke-width:1;stroke-dasharray:7,7;"/></g><?plantuml-src TLDHRzem47xthpZbfPickjAMjY0KYT8M8O6ee4oQnXvCSg7H4flPpXYR-jztTXmWKST3ZE--yttttPr9JOQmoBaoCEG9GWkM6kalVHvIlb4yP-mC1f6HIZDk3mY6XJOoHnK0rn3vI-KSn7agLkA3UsrXU99yT3XkxVQjnzy6bU0PBFRQOAxPbaS_-0OXQ7e2wFShMnZ2NmRqYp9Pn10yfGhNn98o3Ghp2f_0MeYAmZ9VuW6dGICbVyBWUKn1ayaKnY91XIBo4HloiZTBiSmFzx8GCLVx8yCJeKfCu5cvpnbKoXn4rCvHQ8oiei6zaZiwfoWAbt8vRDS18pGm87vpZ6IU8wKtgHJQWo_hu39R-eT469TwETHL7JNbmd8V4dCFkAu3dZCU8SnKx3kw77RgW1T5zPU0bQ2Mcg9ATNDQlEly_ogVo0qvASYXVFXj7VCbnHqySFswbbp5Ap55ezAeodNtNbbKkVY5Wjg-zx1k7RRSaeJuBldsHHtwxQamXSBlA-6836ZgzkQOlzq-BNQEMTcQrtHRbae8E3yFRPkWHvERYYWhOjHXwDqTxxvnRgJ15h7rlXqs38myhbyaXS38vM3Laa6h5RgXQHWkcuQhfk6wQUWq3JUCkHtrrzlQxQvswzPkfEFfMkjoUKxfqsk4FQmarJzpItjvVi6iNEIpoqVs-UFYnMuecRkDaE5y-G2pBQfITyQ4fCQkfQ4YG2PLX_hhS88RahRN_xosqhVWFYkmTzpDmehh9xG5Np7BvAxdfxVk6oc-XvW64kCUbDC12N9xbe2Puc93RpUArupoW-N7_W40?></g></svg>